Coordinates
version=1
nRows=14
nColumns=40
inDegrees=yes

Units are S.I. units (second, meters, Newtons, ...)
Angles are in degrees.

endheader
time	pelvis_tilt	pelvis_list	pelvis_rotation	pelvis_tx	pelvis_ty	pelvis_tz	hip_flexion_r	hip_adduction_r	hip_rotation_r	knee_angle_r	knee_angle_r_beta	ankle_angle_r	subtalar_angle_r	mtp_angle_r	hip_flexion_l	hip_adduction_l	hip_rotation_l	knee_angle_l	knee_angle_l_beta	ankle_angle_l	subtalar_angle_l	mtp_angle_l	lumbar_extension	lumbar_bending	lumbar_rotation	arm_flex_r	arm_add_r	arm_rot_r	elbow_flex_r	pro_sup_r	wrist_flex_r	wrist_dev_r	arm_flex_l	arm_add_l	arm_rot_l	elbow_flex_l	pro_sup_l	wrist_flex_l	wrist_dev_l
     42.23750000	     -6.43483388	     -4.78606738	      5.25369352	      0.87435794	      0.92191314	      0.48464986	      1.81420162	      1.70731736	    -13.11923183	     16.09194898	     16.09194898	     16.87875476	     -3.46620418	     -0.91922393	     27.29620093	     -5.71354208	      3.52430055	     20.84074879	     20.84074879	      3.37836415	     -8.69206711	     -2.39274456	     -7.52991035	      1.83955226	      4.17046081	     66.07833023	    -14.53898528	      4.16349244	     86.02075796	     44.71114435	      0.00000000	      0.00000000	     -4.50825684	    -11.12112529	     16.65398822	     28.92449547	     43.05498249	      0.00000000	      0.00000000
     42.26057143	     -6.55547350	     -4.79317253	      4.84742209	      0.87531107	      0.92267778	      0.47980938	      1.61351572	      1.33398539	    -12.97174047	     16.14658546	     16.14658546	     16.55341104	     -3.20040000	     -0.85556020	     27.01649310	     -5.53016335	      3.25178535	     21.02685178	     21.02685178	      3.94467041	     -8.97336501	     -2.47976841	     -7.45982445	      1.89051116	      4.15302917	     65.44575561	    -14.45246842	      4.26574349	     85.70780559	     44.71743152	      0.00000000	      0.00000000	     -4.16522233	    -11.43316097	     16.62183765	     28.99749637	     43.07189329	      0.00000000	      0.00000000
     42.28364286	     -6.65046179	     -4.80169430	      4.45079298	      0.87622273	      0.92342925	      0.47501536	      1.42726607	      0.94773499	    -12.87905109	     16.26234914	     16.26234914	     16.24417083	     -2.85948933	     -0.82231230	     26.69024142	     -5.35105496	      2.94343079	     21.17088354	     21.17088354	      4.50575930	     -9.20862480	     -2.53796908	     -7.39605377	      1.95835711	      4.12769007	     64.56061016	    -14.41448475	      4.32684597	     85.20416930	     44.73051695	      0.00000000	      0.00000000	     -3.77997721	    -11.71741500	     16.60260004	     29.09015008	     43.08882604	      0.00000000	      0.00000000
     42.30671429	     -6.72025806	     -4.84077303	      4.05204862	      0.87704794	      0.92419549	      0.47032275	      1.29294074	      0.57655081	    -12.78995402	     16.49529568	     16.49529568	     15.94458848	     -2.52775476	     -0.82079397	     26.32040258	     -5.21419991	      2.64742419	     21.26272651	     21.26272651	      5.01534438	     -9.39473762	     -2.60011587	     -7.38453800	      2.07945392	      4.08043695	     63.44962138	    -14.34813019	      4.37593960	     84.61874753	     44.74527780	      0.00000000	      0.00000000	     -3.32853174	    -11.98744280	     16.58524532	     29.19416167	     43.10505854	      0.00000000	      0.00000000
     42.32978571	     -6.77307144	     -4.84670495	      3.65713674	      0.87789553	      0.92495766	      0.46563516	      1.25590747	      0.12200098	    -12.77064771	     16.94517885	     16.94517885	     15.65595324	     -2.14469253	     -0.91474486	     25.89076336	     -5.04727506	      2.29366612	     21.29091688	     21.29091688	      5.52884098	     -9.51348890	     -2.62686408	     -7.33766677	      2.17068511	      4.03782762	     61.98640856	    -14.32397693	      4.31332703	     83.73268846	     44.77266810	      0.00000000	      0.00000000	     -2.84276724	    -12.20400222	     16.60022908	     29.29344385	     43.12006080	      0.00000000	      0.00000000
     42.35285714	     -6.91111914	     -4.75717336	      3.26198112	      0.87853383	      0.92558422	      0.46088584	      1.57462166	     -0.61644784	    -13.18019214	     17.89385309	     17.89385309	     15.30099086	     -1.14672092	     -1.84873695	     25.56610026	     -4.77213189	      1.82935294	     21.33677270	     21.33677270	      6.19663428	     -9.46623438	     -1.93809400	     -7.15192307	      2.18462594	      3.92278610	     60.55859679	    -13.68203275	      2.95385024	     81.25567628	     44.90991242	      0.00000000	      0.00000000	     -2.07629153	    -12.45257665	     17.21899195	     28.93571433	     43.12532408	      0.00000000	      0.00000000
     42.37592857	     -6.92313253	     -4.73712841	      2.80081587	      0.87932310	      0.92634424	      0.45629338	      1.97269508	     -1.19754143	    -12.88228493	     19.16139502	     19.16139502	     14.75291813	     -1.34700224	     -2.62313890	     25.04656998	     -4.57241872	      1.55863751	     21.29686434	     21.29686434	      6.70608288	     -9.62424220	     -1.84100732	     -7.13322471	      2.28738676	      3.94560787	     58.46326639	    -13.55556642	      2.70304772	     79.93428014	     44.96076721	      0.00000000	      0.00000000	     -1.40514440	    -12.56137980	     17.46733063	     29.01361779	     43.14458227	      0.00000000	      0.00000000
     42.39900000	     -6.63281574	     -5.00387517	      2.47721972	      0.88041554	      0.92760712	      0.45169899	      1.98295726	     -1.43811323	    -12.73390730	     20.31166803	     20.31166803	     14.18110099	     -1.41409076	     -2.87274850	     24.26411713	     -4.65477750	      1.36625375	     21.31142278	     21.31142278	      7.14419818	     -9.85501928	     -1.90310094	     -7.43936417	      2.85911880	      3.67151421	     56.02341311	    -13.25242099	      2.92665842	     79.08423881	     44.97177938	      0.00000000	      0.00000000	     -0.70727555	    -12.61623742	     17.47147404	     29.21131563	     43.16061739	      0.00000000	      0.00000000
     42.42207143	     -6.78012175	     -4.73013296	      1.92858870	      0.88102742	      0.92800191	      0.44705448	      3.39565008	     -2.52336568	    -12.21538345	     23.16300906	     23.16300906	     13.43621899	     -2.25514719	     -4.49296927	     23.82555966	     -4.17608376	      0.93543054	     21.15700726	     21.15700726	      7.46383100	    -10.18811846	     -1.78533946	     -7.17480463	      2.69574144	      3.86811988	     53.17694981	    -13.34139801	      2.44967369	     76.92486185	     45.05046772	      0.00000000	      0.00000000	      0.26972056	    -12.67492564	     17.59639767	     29.31372435	     43.18151767	      0.00000000	      0.00000000
     42.44514286	     -6.67653561	     -4.71830361	      1.46732671	      0.88177004	      0.92867042	      0.44239381	      4.61758973	     -3.27142713	    -11.59647930	     26.06027160	     26.06027160	     12.13448062	     -3.42113238	     -6.67804244	     23.26558998	     -3.92077823	      0.81043279	     21.22242331	     21.22242331	      7.81486129	    -10.76190741	     -1.58656007	     -7.22169028	      2.94985363	      3.92186269	     50.17735754	    -13.08287098	      1.89793160	     74.52146178	     45.13917545	      0.00000000	      0.00000000	      1.37402000	    -12.60515627	     17.80659042	     29.33772873	     43.19692880	      0.00000000	      0.00000000
     42.46821429	     -6.41121615	     -4.75657712	      1.04015702	      0.88278621	      0.92931839	      0.43770794	      5.52010072	     -3.83084769	    -10.71238368	     28.32613068	     28.32613068	      7.54812058	     -7.00833393	    -17.02387516	     22.60695431	     -3.68984811	      0.77548370	     21.47047753	     21.47047753	      8.55526614	    -11.34946684	     -0.81276213	     -7.32170862	      3.31280704	      3.70654540	     47.31325524	    -11.99558872	      0.24988327	     70.49910462	     45.32304736	      0.00000000	      0.00000000	      2.60460341	    -12.62768038	     19.23042384	     28.94850155	     43.23875302	      0.00000000	      0.00000000
     42.49128571	     -6.17799192	     -4.74216526	      0.57822503	      0.88366775	      0.92964268	      0.43298737	      7.27522516	     -4.56761253	     -9.69480833	     32.36489784	     32.36489784	      5.98099678	     -9.08050370	    -18.36037445	     22.04962937	     -3.39734696	      0.71039895	     21.79993909	     21.79993909	      8.99810940	    -12.11501793	     -0.64059265	     -7.46402357	      3.63708730	      3.88834599	     43.79096845	    -12.02360635	     -0.06209793	     67.58069022	     45.41676963	      0.00000000	      0.00000000	      3.93962893	    -12.51497464	     19.30575608	     29.39606680	     43.30031828	      0.00000000	      0.00000000
     42.51435714	     -5.86988339	     -4.66951085	      0.11220628	      0.88457079	      0.92962647	      0.42830396	      9.21880661	     -5.30615106	     -8.51203627	     36.77889923	     36.77889923	      4.07214821	    -11.41089574	    -19.85742256	     21.49030623	     -3.05667050	      0.56800919	     22.28060548	     22.28060548	      9.63445839	    -12.71767779	     -0.29266029	     -7.67322023	      3.94380250	      3.88317210	     40.43204550	    -11.63843274	     -0.79027691	     63.67409432	     45.55743096	      0.00000000	      0.00000000	      5.28872878	    -12.41277326	     19.40841272	     29.78169882	     43.37699022	      0.00000000	      0.00000000
     42.53742857	     -5.57232887	     -4.42418339	     -0.35996620	      0.88544705	      0.92902127	      0.42362347	     11.44549857	     -6.21234301	     -7.30713405	     41.60265552	     41.60265552	      2.53898560	    -13.04529292	    -20.06937940	     21.08675601	     -2.55311238	      0.29284562	     22.99934932	     22.99934932	     10.17982758	    -13.24887163	     -0.34198464	     -7.86403791	      4.07997137	      3.97248155	     36.60222033	    -11.73797447	     -0.88341019	     60.83415361	     45.63880591	      0.00000000	      0.00000000	      6.69167092	    -12.36226208	     19.26067438	     30.50316280	     43.43935804	      0.00000000	      0.00000000
